<svg xmlns="http://www.w3.org/2000/svg" viewBox="0 0 23.97 22.21"><defs><style>.cls-1{fill:#847552;}</style></defs><title>download</title><g id="Livello_2" data-name="Livello 2"><g id="Livello_1-2" data-name="Livello 1"><path class="cls-1" d="M23.28,10.83a.68.68,0,0,0-.69.69v6.25a3.08,3.08,0,0,1-3.08,3.08H4.45a3.08,3.08,0,0,1-3.08-3.08V11.41a.69.69,0,1,0-1.37,0v6.35a4.46,4.46,0,0,0,4.45,4.45H19.52A4.45,4.45,0,0,0,24,17.76V11.51a.69.69,0,0,0-.69-.69Zm0,0"/><path class="cls-1" d="M11.5,16.76A.69.69,0,0,0,12,17a.67.67,0,0,0,.48-.2l4.36-4.36a.69.69,0,1,0-1-1l-3.19,3.19V.69a.69.69,0,1,0-1.37,0V14.62L8.1,11.42a.69.69,0,1,0-1,1Zm0,0"/></g></g></svg>