<svg xmlns="http://www.w3.org/2000/svg" viewBox="0 0 286 143" width="100" height="50"><defs><style>.cls-1,.cls-2{fill:#a09167;}.cls-1,.cls-3{fill-rule:evenodd;}.cls-3{fill:#fff;}</style></defs><title>logo_1</title><g id="Livello_2" data-name="Livello 2"><g id="Livello_1-2" data-name="Livello 1"><path class="cls-1" d="M282.77,95.93c-1.15-.26-2.74-1-4.82-5.75-3.5-8-12.26-29.54-13.58-32.44-.45-1.15-.53-1.58-.84-1.58-.55,0-.78,1.09-1.44,2.62L248.62,91.47c-1,2.47-2.49,4-3.81,4.45-1.19-.25-1.46-1.11-1.62-2.47C243,91.19,243,87.06,243,82V72.8c0-7.94,0-9.4.11-11.07.11-1.83.54-2.72,2-3,.65-.1.59-.26.59-.68s-.79-.42-1.5-.42h-9.12c-.87,0-.92.12-.92.44s.23.53.83.69c1.2.26,1.68,1.17,1.79,2.95s.11,3.14.11,11.07V82c0,5.07,0,9.19-.27,11.39-.16,1.52-.49,2.4-1.58,2.61-.49.11-1.15.08-1.15.63,0,.37.24.52.95.52h9.92a1.76,1.76,0,0,0,.44-.05H252c.6,0,.64-.14.64-.56s-.79-.39-.79-.39c-.83,0-.87-.49-.67-1.64a13.8,13.8,0,0,1,.82-3.22l3-7.54c.11-.32.22-.42.49-.42h12.21a.53.53,0,0,1,.55.37l4.38,11.18a.85.85,0,0,1-.5,1.21c-.55.05-.49.28-.49.59s.38.25,1.37.31c4.38.1,7.12.1,9.09.1S283.6,96.09,282.77,95.93ZM266.57,80.69H256.49c-.22,0-.27-.16-.22-.37l5-13c.06-.21.16-.47.33-.47s.22.26.27.47l4.93,13C266.9,80.53,266.84,80.69,266.57,80.69Z"/><path class="cls-1" d="M50.25,82c0,5.07,0,9.19-.27,11.39-.16,1.52-.49,2.4-1.58,2.61-.49.11-1.15.08-1.15.63,0,.37.24.52.95.52h9.91c.6,0,.85-.16.85-.52s.08-.55-.67-.68c-1.29-.22-1.57-1.09-1.73-2.5-.22-2.25-.22-6.37-.22-11.44V72.8c0-7.94,0-9.4.11-11.07.11-1.83.54-2.72,2-3,.65-.1.59-.26.59-.68s-.79-.42-1.5-.42H48.44c-.87,0-.92.12-.92.44s.23.53.83.69C49.54,59,50,60,50.14,61.73s.11,3.14.11,11.07Z"/><path class="cls-1" d="M5.32,82.2c0,4.84,0,9-.26,11.21-.21,1.53-.47,2.68-1.53,2.9a8.66,8.66,0,0,1-1.9.21c-.63,0-.84.16-.84.42s.37.53,1.05.53c2.11,0,5.42-.16,6.63-.16,2.63,0,7.37.63,11.22.63,9.74,0,15.22-3.74,17.64-6.21A20.92,20.92,0,0,0,43.07,77,18.83,18.83,0,0,0,38,63.67c-5.74-6-14.53-6-21.11-6-3.16,0-6.48.16-8.11.16-1.47,0-4.79-.16-7.58-.16-.79,0-1.16.11-1.16.47s.32.47.9.47A11,11,0,0,1,3,58.77c1.74.37,2.16,1.21,2.26,3s.1,3.16.1,11.16ZM11.9,72.09c0-4.16,0-8.74.05-10.53a1,1,0,0,1,.63-1.05A14.07,14.07,0,0,1,16,60.15c4.11,0,10.11.63,15,5.26C33.22,67.57,36,71.89,36,78.57,36,84,35,88.79,31.59,91.68c-3.16,2.74-6.74,3.79-12.11,3.79-4.16,0-6.21-1.1-6.89-2.1-.42-.58-.53-2.69-.58-4-.05-1-.11-5.05-.11-10.63Z"/><path class="cls-2" d="M69.07,57.49c-.79,0-.91.05-.91.48a.67.67,0,0,0,.51.69c1.24.33,2.08,1.11,3.3,4l13.28,32.2c1,2.48,1.32,3.21,2,3.21s1.05-.84,2.42-3.9c1.16-2.64,3.64-8.38,7-16.07,2.85-6.48,4.27-9.33,6.33-14.28,1.42-3.37,2.21-4.27,2.9-4.74a4.57,4.57,0,0,1,2.58-.63c.53,0,.84-.11.84-.48s-.42-.48-1.11-.48H99.45c-.64,0-.89.11-.89.53s.38.6.71.69,1.54-.07,1.39,1a9.39,9.39,0,0,1-.47,1.95C98.91,65.1,91.56,83,89.29,88.79l-.41-.89L79.82,64a15.72,15.72,0,0,1-1.21-4.06,1.26,1.26,0,0,1,.53-1.11c.42-.32.91-.47.91-.84s0-.48-.62-.48Z"/><path class="cls-1" d="M112.83,82.05c0,4.85,0,9-.26,11.22-.21,1.53-.48,2.69-1.53,2.9-.47.11-.7.37-.7.63s.31.53,1,.53c2.11,0,10,.16,17.93.16,2,0,2.48,0,2.85-1.37a9,9,0,0,0,.36-2.74c0-.53.08-.84-.34-.84a.58.58,0,0,0-.66.46,3.94,3.94,0,0,1-1.76,1.32,7.77,7.77,0,0,1-4,.74c-5.38,0-6.16-1.21-6.27-4.85-.05-1.53,0-6.38,0-8.17V77.88c0-.31.05-.94.32-.94,1.27,0,5.16.05,6.16.16,2,.21,2.77.45,3,1.39a.63.63,0,0,0,.7.48c.48,0,.53-.23.53-.65s.43-4.15.43-4.47-.23-.34-.44-.34-.41.11-.7.32c-.47.53-1.27.68-2.53.79s-5.95.11-7.1.11c-.31,0-.37-.21-.37-.58V60.81c0-.37.11-1,.37-1,1.05,0,6.26,0,7.16.1,2.63.32,2.46.88,2.69,1.47s.29.82.66.82.48-.3.53-.56c.11-.63.65-3.73.65-4.09s-.05-.48-.32-.48a4.89,4.89,0,0,0-.84.21,21.35,21.35,0,0,1-2.27.32c-1,.05-10.16.05-11.84.05-1.47,0-4.8-.16-7.59-.16-.79,0-1.16.11-1.16.48s.32.48.9.48a10.76,10.76,0,0,1,2.06.16c1.74.37,2.16,1.21,2.27,3s.11,3.16.11,11.17Z"/><path class="cls-1" d="M210.39,94.28c7.43-11.33,14.67-23.4,21.94-35.21a2.28,2.28,0,0,0,.42-1c0-.26-.37-.42-.9-.42H215.78c-2.16,0-4.69.05-9.7-.16a14.91,14.91,0,0,1-2.11-.37c-.32,0-.53.26-.63,1a29.49,29.49,0,0,0-.63,4.23c0,.63.12.86.49.86a18.32,18.32,0,0,1,3-1.66,26.7,26.7,0,0,1,8.33-1.36h9.32c-7.06,11.12-14.59,23.28-22,34.87-.63.95-.79,1.21-.79,1.58s.32.52.9.52c10.65,0,19.5.26,28.3.26.95,0,1.32-.42,1.58-1.37.37-1.32.45-2.43.83-4.07.21-.92-.21-1.2-.63-1.2s-.67-.26-1.14.58c-.84,1.58-2.9,2.9-8.28,2.9Z"/><path class="cls-1" d="M140.34,68.91h.16c1,1,6.83,7.36,12.59,12.87,5.5,5.26,12.28,12,15.61,15,.58.56,1,1.14,1.6,1.14s.54-.51.54-1.63l.34-32.24c0-3.79.29-5.16,1.77-5.57.64-.15.94-.31.94-.62s-.12-.43-.81-.43l-7.37,0c-.79,0-1.09.05-1.09.46s.31.46,1.1.77c1.27.51,1.75,2.76,1.8,5.87l.53,22.93h-.26c-.9-.82-8-8.17-11.64-11.64-7.73-7.41-14.66-15.63-15.31-16.29-.91-.92-1.11-2.14-2.17-2.14-.53,0-.69,1.17-.69,2.19l-.48,30.24c-.05,4.44-1.17,5.92-2.55,6.33-.74.2-.73.37-.73.67,0,.46.72.5,1.41.5h6.43c.74,0,1.24-.09,1.24-.5s.09-.51-.81-.81c-1.06-.36-1.51-1.65-1.61-5.63Z"/><path class="cls-1" d="M180,82.05c0,4.85,0,9-.26,11.22-.21,1.53-.47,2.69-1.53,2.9-.48.11-.7.37-.7.63s.31.53,1,.53c2.11,0,10,.16,17.94.16,2,0,2.48,0,2.85-1.37a9,9,0,0,0,.36-2.74c0-.53.08-.84-.34-.84a.58.58,0,0,0-.66.46,4,4,0,0,1-1.76,1.32,7.76,7.76,0,0,1-4,.74c-5.37,0-6.17-1.21-6.27-4.85-.05-1.53,0-6.38,0-8.17V77.88c0-.31.05-.94.32-.94,1.26,0,5.15.05,6.15.16,1.95.21,2.77.45,3,1.39a.63.63,0,0,0,.7.48c.48,0,.53-.23.53-.65s.43-4.15.43-4.47-.23-.34-.44-.34-.41.11-.7.32c-.47.53-1.26.68-2.53.79s-5.94.11-7.11.11c-.32,0-.37-.21-.37-.58V60.81c0-.37.1-1,.37-1,1.05,0,6.26,0,7.16.1,2.63.32,2.46.88,2.69,1.47s.29.82.66.82.47-.3.52-.56c.11-.63.65-3.73.65-4.09s-.05-.48-.32-.48a4.9,4.9,0,0,0-.84.21,21.36,21.36,0,0,1-2.27.32c-1,.05-10.16.05-11.85.05-1.48,0-4.8-.16-7.59-.16-.79,0-1.16.11-1.16.48s.32.48.89.48a10.72,10.72,0,0,1,2.05.16c1.74.37,2.16,1.21,2.27,3s.11,3.16.11,11.17Z"/><path class="cls-1" d="M124.23,24.65h.16c1,1,6.89,7.42,12.72,13,5.56,5.31,12.4,12.05,15.76,15.15.59.57,1,1.15,1.62,1.15s.55-.51.55-1.65l.35-32.52c0-3.82.29-5.2,1.79-5.62.64-.16.95-.31.95-.62s-.12-.44-.81-.44l-7.44,0c-.8,0-1.1.05-1.1.46s.32.46,1.12.77c1.28.52,1.76,2.78,1.82,5.92l.53,23.13H152c-.91-.82-8.12-8.24-11.75-11.74-7.8-7.47-15.19-15.68-15.84-16.35-.92-.93-1.22-1.79-1.81-1.79s-.7.72-.7,1.75l-.48,30.5c-.05,4.48-1.18,6-2.57,6.39-.75.21-.73.37-.73.68,0,.46.73.51,1.43.51H126c.75,0,1.25-.09,1.25-.51s.09-.51-.82-.82c-1.07-.36-1.52-1.66-1.63-5.68Z"/><path class="cls-1" d="M26.83,54c3.5,0,7.67-.37,9.86-1.21a1.89,1.89,0,0,0,1.42-1.53,15.37,15.37,0,0,0,.5-4.43.71.71,0,0,0-.73-.71c-.44,0-.7.87-1.63,1.88-2.19,2.43-5.12,3.81-10,3.81C18.92,51.84,9,44.76,9,32.2c0-5.12,1-10.13,5-13.67a14.92,14.92,0,0,1,10.33-4c5,0,9.28,2.14,11.08,4,1.37,1.37,1.71,1.51,2.12,2.19s.29.84.73.84c.22.11.42-.1.48-.89.11-1.05.07-1.29.18-3s.28-2.48.28-2.9-.22-.58-.82-.64c-1.64-.16-3.4-.63-5.48-.89A56.22,56.22,0,0,0,25,12.68c-8.16,0-13.36,2.11-17.31,5.59A19.48,19.48,0,0,0,1.26,32.73c0,5.12,1.42,11,6.79,15.56C13,52.46,19.33,54,26.83,54Z"/><path class="cls-1" d="M91.11,29.47l-1.53-1.11c-4.52-3.34-6.72-5.22-6.72-7.66,0-3.18,3.15-6.33,7.18-6.33a8.61,8.61,0,0,1,6.58,3.31c1,1.07,1.27,1.79,1.65,1.79s.65.08.64-1.08c0-2.49.09-3.35.09-4,0-.37-.27-.53-.76-.64a27.06,27.06,0,0,0-7.25-.9c-7.57,0-12.58,4.19-12.58,10,0,4.3,2.07,8,8.06,12.57L89,37.32c4.52,3.39,6,5.89,6,8.48,0,2.81-2.83,6.89-7.73,6.89-3.38,0-7.1-1.52-8.48-5.38-.15-.41-.17-.56-.66-.56s-.55.26-.66,1.27a22.82,22.82,0,0,0-.15,3.19,5.54,5.54,0,0,0,0,.59c-1.1-.39-2.54-1.48-4.36-5.63-3.51-8-12.29-29.6-13.61-32.5-.46-1.15-.53-1.58-.84-1.58-.55,0-.78,1.1-1.44,2.63L43.54,47.47c-1.1,2.64-2.69,4.27-4.07,4.53-.44.05-.92.41-.92.73s.28.38,1,.38h7.35c.6,0,.64-.14.64-.56s-.79-.39-.79-.39c-.83,0-.87-.49-.67-1.64a14,14,0,0,1,.82-3.22l3-7.56c.11-.32.22-.42.49-.42H62.57a.53.53,0,0,1,.55.37l4.39,11.21a.85.85,0,0,1-.5,1.21c-.55.05-.49.28-.49.59s.38.25,1.37.31c4.39.11,7.14.11,9.11.11a2.82,2.82,0,0,0,1.12-.17l.19.08a19.33,19.33,0,0,0,8,1.38,16.09,16.09,0,0,0,8.66-2.17A10.61,10.61,0,0,0,100,43C100,38,97.65,34.4,91.11,29.47ZM61.53,36.66H51.44c-.22,0-.28-.16-.22-.37l5-13c.06-.21.16-.48.33-.48s.22.26.27.48L61.8,36.35C61.86,36.5,61.8,36.66,61.53,36.66Z"/><path class="cls-1" d="M106.68,38c0,5.09,0,9.23-.27,11.43-.16,1.52-.48,2.41-1.54,2.62-.48.11-1.13.08-1.13.64,0,.37.23.52.93.52h9.68c.59,0,.83-.16.83-.52s.08-.56-.66-.69c-1.26-.22-1.53-1.1-1.69-2.51-.21-2.25-.21-6.39-.21-11.48V28.77c0-8,0-9.44.11-11.11.11-1.83.53-2.72,2-3,.64-.1.58-.26.58-.68s-.77-.42-1.46-.42h-8.9c-.85,0-.9.12-.9.44s.22.53.81.69c1.17.26,1.65,1.18,1.75,3s.11,3.15.11,11.11Z"/><path class="cls-2" d="M197.73,6.75c.15-.42.23-.51.4-.6s.28.05.36.19A11.27,11.27,0,0,1,199.14,9a.91.91,0,0,1-.55,1c-2.33,1.27-6,1.1-8,.71a.55.55,0,0,1-.5-.28.2.2,0,0,1,.08-.25,1.27,1.27,0,0,1,.5-.1A13.18,13.18,0,0,0,196,8.57,4.14,4.14,0,0,0,197.73,6.75Z"/><path class="cls-1" d="M196.92,46.64c-.22-1-.36-1.92-.5-2.88a13.85,13.85,0,0,1-12.79,8c-10.95,0-19.22-7.39-19.27-18.71,0-13.56,9.09-18.6,15.65-18.63,9.35,0,18.18,7.56,18.22,19.75a28.25,28.25,0,0,1-.33,4.36c.92-.18,1.83-.38,2.77-.53.29-.06,1.13-3.27,3.78-3.7l.22,0c.06-.72.1-1.45.09-2.2,0-12.47-8.91-20.33-23.11-20.28-17.11.06-23.51,12.12-23.47,21.43,0,9.64,6.69,21.32,23.06,21.26a24.39,24.39,0,0,0,16.1-5.55C197.19,48.15,197,47.39,196.92,46.64Z"/><path class="cls-1" d="M204,37.37c-.43.65-.51,1.21-.08,1.58l.06,0c0-.33.34-1.54.13-1.61h0Z"/><path class="cls-1" d="M205.83,37.47c-.28.83-.17,1.45.5,1.71l.06,0c-.17-.34-.16-1.75-.44-1.75l0,0Z"/><path class="cls-2" d="M210.14,9c-.64.54-.73,1.12-.66,2.31.23-.27.31-.72.67-.3a4,4,0,0,0,.08-1.27c-.11.1-.22.21-.37.18V9.79a1,1,0,0,0,.29-.8Z"/><path class="cls-2" d="M221.26,11c-.14.13-.36.22-.46.39s.17.56.08.83-.53.66-.61,1c.35.25.76.56.64,1.09,0,.12,0,.24,0,.35l-.09,0a2.16,2.16,0,0,0-.24-.59c-.43,0-.55.07-.72.34-.33.52-.11.71.1,1.16a2.48,2.48,0,0,0,.42.74c.13.16.32.47.59.37.44-.18.47-1,.35-1.43l0,0a1,1,0,0,1,.52.39h0c0-.62.07-1.6-.49-1.84l0-.08c.32,0,.39.16.59.27a5,5,0,0,1-.18-1.08l-.25-.74c0-.17-.07-.36.08-.44l.29.07v0C221.86,11.34,221.71,11.08,221.26,11Z"/><path class="cls-2" d="M209,12.7c-.22.24-.81.94-.66,1.5a4.49,4.49,0,0,1,.17.85l0,0c.06-.27.45-.28.43,0a5.56,5.56,0,0,1,0,1.48c-.05.15-.17.56,0,.7h0a1.15,1.15,0,0,1,.36-.67h.12v0a6.32,6.32,0,0,1-.16,1c-.15.9-.28,2.52.37,3.24v0a8.92,8.92,0,0,0,.21-1.54,7.16,7.16,0,0,1,.57-1.32c.07-.2.2-.76-.08-.81-.22.11-.29,0-.36.24A3,3,0,0,0,210,15.5h-.05c-.08.19,0-.44-.07-1l-.3-.74v-.51A.75.75,0,0,0,209,12.7Z"/><path class="cls-2" d="M215.71,19.06c-.68.43-2-.44-2.37.5a1.82,1.82,0,0,0,.62,1.79c.12-.15.33-.56.5-.46l.21.4a5,5,0,0,1,2.48-1.62l.1-.23-.12-.27A6.61,6.61,0,0,1,215.71,19.06Z"/><path class="cls-2" d="M211.76,18.48c-.39.95-1.09,1.72-.75,3.09l.05,0C211,20.74,212.47,19.33,211.76,18.48Z"/><path class="cls-2" d="M212.26,21.71a3.07,3.07,0,0,0-.87,3.48h.11c.09-.78,1.28-3.12,1-3.48h-.22Z"/><path class="cls-2" d="M212,37.49c-.59.22-2.46-.11-2.41.87l.12.69a3.49,3.49,0,0,0,.13,1h0c.07-.4.51,4.86.64,5.36v.27l.39,1.6c.12.38.18.73.27,1.1,0,.13.4,2.52.61,3.42s.21,1.47.44,2.14h0l1.27-.27c.61-.13,1.28,0,2-.15a15.15,15.15,0,0,0,2.56-.64,5,5,0,0,0,1-.64,19.68,19.68,0,0,0-.33-4.23c-.29-1.68,0-3.36-.38-4.94-.07-.43-.13-.86-.2-1.3s-.25-.78-.36-1.13-.08-.72-.25-.94a3.21,3.21,0,0,0-.83-.54h0c-.05.17,0,.06-.1-.1-.46-.22-.84-.5-1.27-.71-.19-.09-.35-.07-.54-.15s-.3-.2-.47-.25l-.47-.07a3.58,3.58,0,0,0-.41-.2l-.59,0C212.49,37.57,212.28,37.53,212,37.49Z"/><path class="cls-2" d="M196.69,39.76c.16,1.06.48,2,.64,3.06.33,1.69,1,6.4,1,6.81.27,1.39.59,3.08.87,4.45a14.28,14.28,0,0,0,.41,2l1.09-.17a9.78,9.78,0,0,1-.46-1.56c-.16-1.06-.54-2.17-.69-3.23-.56-3.78-2-11-2-11a21,21,0,0,0,2.19,0c0,.49.24.84.29,1.33.13.82.44,1.7.58,2.48.05.5.23,1,.28,1.5.3,1.62.49,3.32.87,4.86a31.32,31.32,0,0,1,.93,5.26,13.56,13.56,0,0,0,1.52-.32h.71l2.71-.32,2.64-.76v-.15c-.41-1.55-.61-3.19-.94-4.87,0-.25,0-.49,0-.74-.22-1.17-.33-2.45-.59-3.59l-.08-1.09c-.14-.6-.14-1.3-.32-2l-.49-1.75-.95.07-.22,0a1,1,0,0,1-.86-.27c-.05-.07-.08-.17-.17-.2-.53-.19-1.18,0-1.7-.17-.18,0-.23-.22-.37-.27-.39-.14-.77,0-.93-.35l.07-.1-.1-.08-2.22.32C199.54,39,197.53,39.61,196.69,39.76Z"/><path class="cls-2" d="M240,37.34c.5,0,.57.22.94.27a1.76,1.76,0,0,0,.34,0l0-.12a1.34,1.34,0,0,1,1.47-.95c.32.06.72.36,1.14.1.05,0,.05,0,.08-.1a1.22,1.22,0,0,1-.89-.33c.24-.26.89-.11,1.22-.25l.27,0-.07,0a4.66,4.66,0,0,0,.89-.34,2,2,0,0,1,.3-.27c.25.11.79.46,1.12.29l.08-.06v-.08c-.25-.11-.53-.13-.65-.39a2.52,2.52,0,0,1,.83-.43l.5.1c.16,0,.2-.25.47-.18a2.82,2.82,0,0,0,.63.18l0-.06,0-.06a.79.79,0,0,0-.26-.24.71.71,0,0,1,0-.45c.28-.17.74-.15,1-.35.06,0,0,0,.06,0s0,.22,0,.34l.06.06c.27.09.91-.23,1.12,0-.22.41-.88.25-1.34.43-.18.11-.06.35,0,.51-.42.61-.7.18-1.24.16l0,.06a.32.32,0,0,0,0,.27,2.14,2.14,0,0,1-.85.45l-.67,0c-.31.09-.36.42-.67.51a1.69,1.69,0,0,1-.4-.13l0,.08c-.11.14-.22.08-.4.17l-.25.33-.56.31-1.14.16-.56,0c-.2.06-.35.35-.58.46a8.1,8.1,0,0,1-1.44.88,2.77,2.77,0,0,0-.95.15,2.85,2.85,0,0,1-1.46.45c-.14-.4.1-.54.2-.85C239,38.16,239.81,37.86,240,37.34Zm-3.33,1.55c.39,0,.62,0,.76.27l0,.18v.05l-.51-.05,0,.05,0,.11a.84.84,0,0,0,.47.22l0,.13c-.23.16-.58.15-.82.24s-.9.72-1.34.42a.63.63,0,0,0-.19,0c0,.19.21.22.21.44l0,.06a2.16,2.16,0,0,1-.74-.13.67.67,0,0,1-.71.31l-.38-.08c-.16,0-.45.19-.7.09s-.21-.3-.45-.38l-.06.05c-.08.11,0,.23,0,.33-.22.12-1.07.44-1.25,0,0-.21.28-.53.4-.64,1.34-1.25,2-.12,2.08-.53.41-.1,1.4-.05,1.91-.1a.58.58,0,0,0,.07-.45,6.51,6.51,0,0,0,.71-.13C236.21,39.2,236.38,39,236.62,38.89Z"/><path class="cls-2" d="M219.22,43.72c.19,1.33.67,7.8.86,9.14h.38c.06,0,.66-.13.73-.15-.18-1-.55-2.14-.73-3.09C220.41,49.4,219.35,43.83,219.22,43.72Z"/><path class="cls-2" d="M223.57,10.17h0c0-.06-.67-1.12-.67-1.12s-.23.06-.35,0c.27-.85-.4-1.19-.85-1.54a7.25,7.25,0,0,1-.6-.71c-.12-.19,0-.43-.15-.67l-.69-.67c-.24-.16-1-.38-1-.63-.16,0-.42-.08-.62-.06s-.72.46-1,.52c0,0,0-.32,0-.33,0-.28-.4-.51-.76-.4-.19.06-.4.26-.56.32s0,.3-.08.29-.41.43-.63.45c0,0,0-.57,0-.59l0-.07.14-.14v0a.93.93,0,0,0-1,0c-.08.07-.3.59-.38.66s0-.52-.07-.57c-.23-.16-.7.08-.83.18s-.5,1-.89.89l-.07-.18a3,3,0,0,0-.9.42c-.19.19-.14.54-.36.71s-.47.14-.6.32-.2.51-.4.67l-.47.2c-.21.17-.53.74-.38,1h.32a1,1,0,0,0-.12-.49l0-.07a1.65,1.65,0,0,0,1-.11c0-.08.11-.17.07-.27s-.2-.09-.27-.18l0-.09c.21,0,.67-.3.92-.22s0,.59.48.49c0-.19.25-1.14.23-1.34,0,0,.34.59.36.56s-.18.1-.16.1a.45.45,0,0,0,.6.18c.11-.08.32-1.19.5-.59.82.87.87-.27,1.27-.46.24.18.43,1.2.73,1.25s1.46.19,1.6.39c0,0-.76.15-.78.19-.34.11-.39.39-.73.5s-1.17-.35-1.43-.3-.15.61-.32.69c-1.17-.46-1.81-.74-2.44.28.12,0,.85,0,.87,0-.25.5-1,1.43-1.21,1.93a1.07,1.07,0,0,0-.09.62c.07,0,.1.34.17.39.34-.06.55-.33.89-.39s.53.14,1,.13a3.38,3.38,0,0,1,.48-.64c0,.23,0,.94,0,1.16s-.2.59-.29.85-.08.34-.13.51c-.23,0-.22-.28-.38-.35-.49-.22-1.49-.06-1.61-.64l0,0c0,.32-.25.45-.25.87.15.12,1.06.77,1.16.71s.1-.1.23-.12c.13.59-.26,1.68,0,2.19a14.81,14.81,0,0,0,1.13,1.74,2.33,2.33,0,0,0,.66-.77c-.14-.86-1.69-.91-1.13-2.59.22.12.11.51.34.67a3,3,0,0,0,2.35-.08l.29-.33s.14-.13.15-.11c.38,1.57-1.36,1.77-1.18,2.66.34.14,2.4.21,2.09.06.34-.14.6-.66.79-1s.56-.58.51-.9c0-.16-.28-.65-.23-.87.08-.38,1.45-1.52,1.73-1.69a2,2,0,0,0,0-.51.71.71,0,0,0-.17-.31c-.06.31-1.43,1-1.85,1.14s-.69-.21-1-.21c0,.11-.12.6-.16.71-.54,0-.67-1.29-.91-1.66-.12,0-.76.15-.67-.13,0-.06.32-.18.37-.2a5.28,5.28,0,0,1,.17-1.18,1.4,1.4,0,0,0,.59,1c.4.23.87-.28,1.32-.22a6.6,6.6,0,0,0,.76.21c.32,0,.7.08,1,.07a1.13,1.13,0,0,1-.29-.91c0-.18.07-.3.2-.38.3-.18,1,.23,1.1-.27a2.13,2.13,0,0,1-.7-.34c-.15,0-.12.08-.24,0v-.05c.21-.16,0-.71-.22-.64l0-.05s0,0,0-.09.17-.22.22-.36-.09,0-.15-.07,0-.08-.09-.13-.47,0-.65-.05l0-.11c.52-.17.83-1.43,1.23-1.34s.66.53.82.46a3.79,3.79,0,0,1,1.45.21V8.3a1.6,1.6,0,0,0-.58,1.09l0,0c.49-.13.77-.16,1-.63l.11,0a3,3,0,0,1-.13,1.1l.06,0,.67.07c.29.12.47.5.85.51C223.57,10.4,223.63,10.33,223.57,10.17Zm-5.44-2.88c-.06.31,0,.54-.15.8-.67,0-.52-.35-.59-.83-.22,0-.75.4-1,.12V7.23c.85-.2,1-.95,1.35-1.63l.18,0C218.81,6,218.25,6.71,218.13,7.29Z"/><path class="cls-1" d="M212.77,32a6.66,6.66,0,0,1-1,.72c-.61.19-.91.44-1.52.63s-2.28,1.18-2.44,1.22a4.7,4.7,0,0,1-1.11.39c-.47.1-1.38-.17-1.79-.09-.94.16-2.43,1.3-2.46,2.31a.29.29,0,0,1,.09.16l.44,0,.57-.81.11.05c0,.17-.17.53-.1.65.13.28.39.12.62.13a1.62,1.62,0,0,0,.88-.16c.22-.19.27-.56.6-.65l0,0a.87.87,0,0,0,.08.58c.66.56,1.57-.19,1.68-.37s0-.77.08-1l.28.26c.82.35,1.6-.71,2.05-1.13l.23-.26.71-.13a25.19,25.19,0,0,0,2.89-.58c.17-.14.33-1.86-.4-2C213.17,31.48,212.8,32.06,212.77,32Z"/><path class="cls-2" d="M234.37.08c2.72,0,4.4-.27,6.65.2.79.17,1.51.4,2.23.63a25.81,25.81,0,0,1,2.6,1.34c.67.28,2,.3,2.73.52,1.26.41,2.59.77,3.92,1.06,1.16.26,2.54.43,3.76.63l1.75.17h1.32a6.38,6.38,0,0,0,1.87-.06l2.65-.19s1.79-.35,1.65-.2l-.54.65a6.73,6.73,0,0,1-3,.7V5.6a9.12,9.12,0,0,0,2-.05l.08.12c0,.49-1,1-1.28,1.35-.83,1.08-3.84,1.36-4,1.3-.62-.21-1.22-.37-1.78-.58-1.93-.75-3.7-1.51-5.6-2.26a10,10,0,0,0-4.72-.71,6.19,6.19,0,0,0-2.74-1.38l-1.25-.26-2-.52a5.87,5.87,0,0,0-1.43-.33l-.77-.1-1.06,0a6.69,6.69,0,0,0-1.7,0c-.61.08-1.25.09-1.87.21l-.93.22a3.87,3.87,0,0,0-.9.15l-.7.06C228,3,230.07,4.4,228,4.54a3.71,3.71,0,0,0-4.23.34c-.75.44-.73.64,0,1.58s2.16,1.29,2.52,1.66c2.18,2.2,1.24,4.52,1.78,6a9.54,9.54,0,0,1,.68,3.13c0,.65-.25,1-.36,1s.11-1.4-.12-2a2.42,2.42,0,0,0-.69-1.21c-.62-.75-.27-1-.5-1.52s-.52-1-.83-1.58a8.25,8.25,0,0,0-.69-1.4c-.35-.44-.54-.5-.5-.85,0-.08-.34-.15-.35-.27l0-.05c-.17-.29.17-.7,0-1a1.4,1.4,0,0,0-.32-.23l-.84-.47c-.15-.14,0-.26-.12-.43l-.31-.73c-.17-.19-.46-.28-.58-.51s-.09-.49-.25-.69L222,5.14a7.06,7.06,0,0,0-1.2-.62s1.06-.62,1.57-1,1.75-.86,2.39-1.24A13.15,13.15,0,0,1,229.4.46c.81-.18,2.1-.24,2.95-.38Z"/><path class="cls-2" d="M278.63,49h-.08c-.25.77-.67,2.1-.29,2.91l.05,0a4.91,4.91,0,0,1,.31-1.32A7.87,7.87,0,0,0,278.63,49ZM219.7,24.71v0C219.75,24.69,219.78,24.66,219.7,24.71Zm37.17,15.8v0a.8.8,0,0,0,.3-.39h-.07c-.25.11-.63,0-.59-.22l-.42-.17c-.3-.08-2.16-1.38-3.18-1.38l-.59.07a6.49,6.49,0,0,1-1.53.32c-.27-.07-.42-.25-.71-.32v.07c.5,1.21,1.27,2.65,1.75,3.85.07.11.27.33.35.44.47,1.16.93,2.05,1.41,3.21a5.77,5.77,0,0,1,.29,1.23,5.78,5.78,0,0,1-.57,2.08,12,12,0,0,1-3.13,3.82,4.48,4.48,0,0,1-.84.64s-.29-.1-.28-.13a3.2,3.2,0,0,1-1.27.1,3.36,3.36,0,0,0-1-.12A5.59,5.59,0,0,0,244.29,55a1.08,1.08,0,0,0-.46,1.08c1.16.41,1.19-.55,1.87-1l.1.05c-.13.36-.31.71,0,1a5.62,5.62,0,0,0,1.55,0c0-.41.76-1.44,1.2-1.25,0,.33-.44.64-.27,1a.36.36,0,0,1,.14.18l1-.1.22-.37h0a.72.72,0,0,0,.91.5c.23,0,.45,0,.62,0,.39-.79.59-.79,1.65-.75l.3-.35a3.79,3.79,0,0,1,.25-.52,11.94,11.94,0,0,0,.59-1.07c0-.48.58-1.42,1.57-2.72.21-.28.64-.76,1-1.17,0,0,0-.06-.05-.07l-.12,0a4.92,4.92,0,0,0-1.6,1.18c-.14.15.07-.33.34-.69.43-.44.87-1,1.34-1.35s.44-1.18.24-1l-.07-.05a7.69,7.69,0,0,0,.07-1.9c-.12-.48-.38-.87-.49-1.37-.16-.7.22-1.4,0-2.12-.12-.37-.44-.63-.57-1,0-.17.15-.12.27-.05l0,0c.22.06.35-.14.59-.08s.44.19.62.12.39-.52.15-.69A1.23,1.23,0,0,1,256.87,40.51ZM219.18,25.24h0Zm3.68,1.24v-.06a.31.31,0,0,1-.11-.17A.35.35,0,0,0,222.86,26.48ZM224,23.94v0l0,0v0Zm43.89,20.78h0ZM222.83,24.58h0l-.05,0ZM224,21.63s.05,0,.08,0,0,0,.07-.09A.35.35,0,0,1,224,21.63Zm53.79,27.59c-.16.12-.32.8-.42,1-.09,0-.07,0-.12,0a1.89,1.89,0,0,0,.05-1.06,3,3,0,0,1,0-1c.07-.15,0-1,0-1.36l0,0h.05l.35.49,0,0,0,0a5.83,5.83,0,0,1-.37-2c0-.12,0-.25.07-.37l-.12-1.5c-.3-1.71-.28-3.72-.59-5.34l-.12-.74a12.83,12.83,0,0,0-1.2-2.63,9.89,9.89,0,0,0-.74-1l-.15-.3c-.33-.48-.76-.91-1.1-1.38l-.44-.62a23.68,23.68,0,0,0-3.49-3.22c-.77-.55-1.62-1-2.42-1.55l-.88-.4c-.74-.33-2.06-1.5-2.71-1.69-2.28-.68-1.43-2.56-6.89-2.82-1.92-.09-4.55,1.63-6.33,1.59a25.24,25.24,0,0,0-3.71.15c-.27,0-4.24-.16-4.85-.15a9.7,9.7,0,0,1-2.16-.15c-1.08.05-2.59-.43-3.67-.38-1.45.18-2.88-.53-5-.59-2.09-.31-1.43.94-2.3,1.44-.09.23-.56.42-1,.6a2.63,2.63,0,0,1-.08.78A8.31,8.31,0,0,1,226,27.59l-.54.73-.16.29c-.18.35-.39.8-.75.6,0,0,.14-.68.26-1.16-.05.07-.31.42-.39.58s-.24.5-.51.35c0,0,.21-1,.08-.81l-.26.05a.86.86,0,0,1-.23.1l0-.05,0-.05,0,0s-.05,0-.07,0l.75-1.11.29-.57.55-.71.17-.2.23-.44a1.77,1.77,0,0,1,.07-.46,1.49,1.49,0,0,1,.44-.64c.12-.08.27-.11.34-.23a3,3,0,0,0,.14-1.06c-.3.1-.44.44-.59.74l-.1,0c-.06-.3-.11-.61-.17-.91,0-.14-.17-.17-.2-.34a1,1,0,0,0,.49-.91c0-.23-.27-.42-.15-.67l0,0c.28,0,.36.14.61.07,0-.14.12-.16.15-.29.15-.53,0-1.8-.37-2l-.22,1.08h-.1l-.15-.23h-.22a22.59,22.59,0,0,1-.69,2.22l.16,0-.09.36-.13.5v.8l-.27,1.59-.06,0s0,0,0,0a.15.15,0,0,1-.11-.09l-.11-.06a.37.37,0,0,0,0-.16c0-.07,0-.19,0-.3l0-.08-.22.53-.3.47-.44.78-.05.37a1.08,1.08,0,0,1-.11.27.27.27,0,0,0,0,0l0,0s0,.05,0,.06c-.21-.07-.27-.29-.27-.56a4.85,4.85,0,0,1,.09-.76,1.73,1.73,0,0,1,.13-.55h0a4,4,0,0,1-.59.43c0,.05-.09.09-.11.15s0,0-.05,0h0v0h0a0,0,0,0,0,0,0l-.07,0s.21-.64.26-.72l.52-.73.63-.93.15-.55s.08-.16.18-.33a1.16,1.16,0,0,1,.09-.3l.13,0s0-.07.06-.07l.29-1.06,0-.17a1.45,1.45,0,0,1,0-.52c.05-.23.1-.46.15-.69s.29-.41.32-.71c.05-.58-.36-1.21.17-1.55a5.58,5.58,0,0,0-.4-1.13c-.14-.52,0-1.09-.22-1.62l-.66-.91-.12-.54c-.16-.63-.34-.75-.89-1a4,4,0,0,1,.39.88c.08.41.89,2.6,1,3.42l.1.41h0c-.12,0-.11,0-.17-.07a.31.31,0,0,1-.19-.2l0,0a4.91,4.91,0,0,1-.27,1.58c-.15.71-.58,1-.6,1.62l-.44.26c0,1,0,2.77-.07,2.92a1.4,1.4,0,0,1-.51-.32l0,0c.13.45-.39,1.26-.51,1.63-.06.19,0,.49-.1.64h0l-.08,0a1.6,1.6,0,0,0-.22-.82l-.12.34a1.71,1.71,0,0,1-1.09.79l0,0v0a3,3,0,0,1-.46.37s0,0,0,.05v.07h0s0,.07,0,.07a1.28,1.28,0,0,0-1.16.16,1.77,1.77,0,0,0-.62,1.42l-.07,0v0l-.06,0s0,0,0,0v0h0l-.19-.05c0-.15,0-.3,0-.44a6,6,0,0,1,1.33-3.58l.29-.07c.24-.54,1.31-.76,1.57-.48v0c.24-.28,1-1.94.44-2.41-.27.21-.19-2.24-.79-2.9.05-.2,0-.61-.16-.71a.3.3,0,0,0-.22-.07,12.75,12.75,0,0,1,0,3.18c-.08.29-.08.74-.32.86l0-.05c-.09-.31.26-1.19,0-1.55-.11,1.6-.8,1.76-1.36,2.76a4.52,4.52,0,0,0-.43,1c-.07.27-.34.11-.32-.5,0,0,.16-.48.14-.48-.09.23-.41.78-.49,1a6.54,6.54,0,0,1-1.51,1.65c-.3.25-1.28-.13-1.49-.64,0,.23-.13,1.15-.21,1.89,0,.42-.1,1.1.22,1.28.3-.23,1.13-.49,1-.14a1.78,1.78,0,0,0,1.58-.79l.1,0c.14.52-.48,1.43-.63,1.8,0,.11-1.23.36-1.7.54H214a.18.18,0,0,0-.13-.1l-.36.15c-.09.07-.38.81-.25,1s.67.15.84.19l.59,0a.08.08,0,0,0,0,0l0,0,.7,0a.45.45,0,0,0,.26,0h0a1.37,1.37,0,0,1,.63-.18l.13,0c.08-.06.29-.32.37-.2.1.28-.26.71-.35.93a6.16,6.16,0,0,0-.1,1.89s0,0,0,0l.24-.1.85-.3.06.08,0,0v0l.06.07v.12a9.14,9.14,0,0,0,.68-.7l.92-.79.3-.15.74-.45.2-.18-.08.3h0c0,.14-.22.82-.32,1l-.43.62-.16.23-.47.69-.87,1.12c-.08.16-.35.17-.53.23a.65.65,0,0,1-.08.16l.13,0c.06.23,0,.75.17.93l0,0a2.7,2.7,0,0,1,.94-1.25,6.43,6.43,0,0,1,1.34-.46c.33.57-.39,2-.33,2.64A4.89,4.89,0,0,0,221,37.63l0,0c0-.23.52.23,1,.49a3.79,3.79,0,0,1,1.15,1.31,5.24,5.24,0,0,0,.91,2.75c.12,0,.39.43.47.67.2.64.14,1.38.71,1.64,0,.66.1,1,.47,1.31.09.06.25.11.29.22l0,1.16c0,.27,0,1.6.14,2a9.7,9.7,0,0,0,.27,2.12,5.19,5.19,0,0,0,.39.61l0,.05a.35.35,0,0,1-.32,0c-.2.32-.31.75-.13.7-.1.33-.44.67-.5.92-1.7.11-2.4-.53-3.75.47a1.76,1.76,0,0,0-.49.4c-.13.2-.85,1.38-.44,1.72l.56,0a1,1,0,0,1,.2-.72l0,0a2.09,2.09,0,0,0,.34.69c.23,0,1.07.1,1.16,0,.2-.4.19-1,.59-1.16v0a1.18,1.18,0,0,0,.37,1.21h2.26a2.09,2.09,0,0,1,.88-1c.24-.1.74-.06.91-.23a6.16,6.16,0,0,0,.3-2.64c-.2,0,0-.78.09-1.68a2.93,2.93,0,0,0-.15-.77c-.25-1-.74-2.39-.4-3.37-.26.12-.12-.33,0-.89s-.17-.77-.08-1.19.61.7.62.69c.41-.18.43-2.3.35-2.46a2.53,2.53,0,0,1,0-1.55,1.05,1.05,0,0,0-.47-.83l-.45.07,0,0v-.08c.23-.18,0-.61-.14-.56l-.07,0,.07-.09c.2-.42,0-.84-.1-.72l-.07,0c0-.46.43-.69.61-1a3.17,3.17,0,0,0,.12-1.87c-.2-.11-.57-.16-.77-.29l0-.12h.1A3,3,0,0,0,229,34a1.87,1.87,0,0,1,.18-.65l-.39-.18a.16.16,0,0,1-.05-.07,7.07,7.07,0,0,0,1-1.33l.1-.54h.1c0,.19.64-.4.42-.82-.06-.13-.23-.16-.27-.32v0c.81-.42.74-1.66,1.25-2.37l.12,0c0,.41-.21.82-.13,1.11l.2.39a14.79,14.79,0,0,1-.25,2l0,0a3.35,3.35,0,0,0,1.38-.67.21.21,0,0,1,.1.08.54.54,0,0,0-.15.42c.12.19.3.2.54.28l0,.08-.91.87a5.37,5.37,0,0,0-.69,1.26,5.32,5.32,0,0,1-.25.74c-.09.17.12.56.57,1.75-.28,1.4,2,1.17,3.21,1.23,4.79.23,7.16-4,7.16-3.31.63,0,.73,1,1.17.77.27-.12,1.82-.74,1-1.62.58,0,1.56.67,2,.46.41.26,1.18-1.08,1.58-1.28a3.65,3.65,0,0,1,1.61-.2c.19-.12.11-1.73.18-2a9.71,9.71,0,0,1,.51-1.35c.07-.14.53-1,.59-1.16,0,0-.16,1-.15,1a7.72,7.72,0,0,0,.54,2.68,8.31,8.31,0,0,0,2.9,3c.67.41,1.77-.13,2.21.46,0,.49-.45.58-.56,1s.33.79.42,1c.35.87,1,.47.79-.22-.08-.23-.36-.77-.1-.94h0c.07.41.88,1.53,1.28,1.6l.08-.22c.2.06.25.27.42.36a4.49,4.49,0,0,1,2.18,1.45,2,2,0,0,1-.7,0c.16.55.66.91,1,1.32a11.14,11.14,0,0,0,3.05,2.73,3.31,3.31,0,0,0,.86.45h0c-.14-.23-.39-.46-.44-.76l0,0c.35.2.56.62.89.86.16.11.48.19.59.3a5.05,5.05,0,0,0,1.25,1.62c.31.24.91.44,1.08.81l0,.05c-.1,0-.08,0-.15,0,0,.36-.05.66-.09,1a20.21,20.21,0,0,1-.22,3c-.05.21,0,.55-.06.81l.16-.15.07.07c.05.19-.13.45-.18.61-.17.48-.1,1.19-.49,1.5a4.16,4.16,0,0,0-1.13.14L265.24,53a3.39,3.39,0,0,0-2.32,1.5c-.21.32-.83,1.32-.44,1.72a7.34,7.34,0,0,0,.79,0c0-.22.07-.69.23-.79l.05,0,0,0c.07.49.33.86.84.77.25,0,.57.05.71-.1s0-.31,0-.47c.07-.45.28-.93.71-1h0c-.22,1,.25.83.52,1.48a7.93,7.93,0,0,0,2.91-.09c.41-.18.38-.61.62-1l.13-.11s0,0,0,0c0-.19.09-1.2.24-1.72s.33-.62.29-1.1a6.21,6.21,0,0,1,.38-1.62c.1-.43.24-1.15.24-1.15l0-.63.8-.8c.27-.65.92-1.41.65-2.35-.11-.39-.4-.52-.49-1s.32-.8.19-1.28-1-.16-1.37-.35c-.91-.51-1.8-.56-2.53-1.25a13.26,13.26,0,0,1-1.5-2.39c-.43-.67-2.53-2.85-2.86-3.71-.17-.43-1-2.32-1.14-2.82a17.22,17.22,0,0,0-1.34-3.05c-.08-.34-.18-.74-.29-1a5,5,0,0,1-.35-.89c0-.26.23-.31.29-.5s-.08-.33-.12-.52l0-.05c.1.06.12.16.27.19l.35-.24c0-.26-.47-1.28-.47-1.54,0,0,.35-.09.35-.07.51.38,2,.77,1.67,1.25,0,0,1.73.71,2.36,1.06a2,2,0,0,0,.84.1c.48.07,1,.8,1.4,1.08.1,0,.09-.08.14-.17h.1c.41.37.85.7,1.28,1.06l.28.32.57.27c.37.27.57.7,1,.94s.78.89,1,.74a12.18,12.18,0,0,1,1.52,2l.4.57h.12l1,2.05c.06.3.13.6.2.89a35.61,35.61,0,0,1,.84,4c.1.59.13,1.29.24,1.89,0,.21,0,.42,0,.62a5.19,5.19,0,0,1,0,1.48,3.79,3.79,0,0,0,0,1.15q0,.77-.08,1.55l-.15-.05a3.77,3.77,0,0,0-.55,2.9c.28.66,1.41,2.78,1.42,2.78,0-.47.09-1.87.31-1.78,0-.75.48-2,.18-2.54Zm-55.14-17h-.08s0,.07,0,.07a3.94,3.94,0,0,1-.3-.49l-.41.27a.85.85,0,0,1-.25.14h0s-.05,0-.07,0l-.1-1a6.1,6.1,0,0,1,.46-.45l.23-.3.75-.73.28,0s-.39,1.32-.39,1.32v.56a1.43,1.43,0,0,1-.07.34C222.6,32.12,222.6,32.19,222.6,32.26ZM225.12,36c-.1.22-.26.2-.51.18a2.88,2.88,0,0,1-1.71-1.72,1.5,1.5,0,0,1,.46,0h0l-.13-.37-.23-1,.17-.07.92,1.26.3.18.41.28c0,.06,0,.12-.2.34s0,.46.3.69l.22.2Zm2.35-6-.42.88-.1.7-.11.59-.35-.13-.14-.62-.17-.79A2.81,2.81,0,0,1,227,28.9l.35-.49.21-.42.47-.5,0,.3A3.41,3.41,0,0,1,227.47,30Zm3.45-5-.14.82-.61,1-.38.51-.18.58a2.57,2.57,0,0,1-.15.26,1.07,1.07,0,0,1-.07.24l-.1,0v0s0,.05-.06,0a5.29,5.29,0,0,1-.12-2l.4-.48.41-.54v-.5s0-.47,0-.48l.25-1h.23l.09.14a2,2,0,0,0,.42.45l0,.71Zm37,19.66s.3.1.47.17c1,.25,1.12.42,1.48.93a3.77,3.77,0,0,0,.41.47l.28.34a.52.52,0,0,1,0,.12,1.27,1.27,0,0,1-.15.51,2.32,2.32,0,0,1-.22.59l-.07,0,0,0s0-.05,0-.08,0,.07-.07.07c0-.44,0-.72-.21-.89a3.89,3.89,0,0,1-.35-.22l-.28-.47-.47-.69-.87-.61ZM217.64,31.47h0Zm7.1-10h0a.18.18,0,0,0,0,.05l0,0Z"/><path class="cls-2" d="M233,6.53h.14a.65.65,0,0,1,.05.61c.21.11.26.12.36.33-.06,1.13-2.66,3.05-3.77,3.3l-.11-.08c.09-.34.34-.55.14-.94A7.45,7.45,0,0,0,231,9.11c.48-.41.76-1.22.25-1.14C231.73,7.37,232.54,7.15,233,6.53Zm21.41,2c1.68,0,2.72.76,4.12,1.15.37.1,3.66.73,4.15.88.25,0,1.21.44,1.46.45a18.79,18.79,0,0,0,5.66.24c.48,0,1.56-.56,2-.31.05,0,.06.07.07.15-.49,1-2.87,1.54-4.21,1.33l-1.31-.12a7.58,7.58,0,0,0-1.89-.25,9.79,9.79,0,0,0-1.77-.39c-1-.28-2-.64-3-1a12.23,12.23,0,0,1-2-.59c-.25.18-.52,0-.82,0l-.59-.18c-.62-.18-2-.58-2.1-1.23C254.24,8.53,254.28,8.53,254.38,8.49Zm-4.83,0c1.35.37,3.43,1.11,3.2,1,0-.06,0,0,0-.07s1.22.75,1.47.81a12.15,12.15,0,0,1,2.18.73,6.58,6.58,0,0,0,1.9.36c0-.13,1,.46,1.36.6.69.24,1.35.37,2,.61a17.58,17.58,0,0,0,3,.61c.63.11,1,.06,1.55.16,1,.18,2.49-.52,3.11.15l0,.1a5.84,5.84,0,0,1-4.2.81l-.7-.05-1.91-.39a6,6,0,0,1-1.3-.32c-.89-.21-1.82-.45-2.69-.72-1.77-.56-3.05-1-4.73-1.64,0,0-.91-.32-1-.37-.94-.44-2.34-.68-3.31-1.06-.41-.16-.88-.42-1.29-.54l0-.05A13.29,13.29,0,0,0,250,9.5c-.09-.24-1.15-.52-1.46-.86.69.17,1.33.47,2,.69,0,0,0,0,.05-.1C250.33,9,249.72,8.86,249.55,8.51Zm-3.47,1.2c.2.14.18.93,0,1.13-.47.64-1.68.34-2.44.41a2.87,2.87,0,0,0,.12.29l-.33.13-1.13.14a27,27,0,0,1-2.86-.18l-.25-.32,0-.13c.14-.31.53-.32.87-.42.81-.25,2.42-.27,2.31-.34l-.1-.12a4.84,4.84,0,0,0,1.38-.19l0-.1C244.34,9.78,245.47,10,246.08,9.71ZM248.18,11a1.43,1.43,0,0,0,.5,0,.22.22,0,0,1,.07.17c.38.22.92.09,1.4.22s.9.14,1.31.27a4.93,4.93,0,0,0,.71.29l-.1.12v.07c.32,0,.72-.15,1,0l.4.32c.31.11.8.36,1,.41.51.13,2.25.48,2.81.61.08.05.62.07.69.12a19,19,0,0,1,2.06.59,7.41,7.41,0,0,0,1.9.37,2,2,0,0,1,1,.37c-.47.77-2.84.14-3.75-.16-.58-.19-2-.28-3.29-.63-.52-.1-1-.27-1.53-.37s-1.58-.42-2-.56a22.44,22.44,0,0,1-3.18-.91c-.18-.1-1.43-.17-1.62-.26l-.14-.32a5.55,5.55,0,0,0-.74-.32,2.41,2.41,0,0,1,1.58,0c.06,0,0,0,.05-.05s0,0,0-.07l-.51-.17Zm-10.29-.54,0,.29c.16.32.56.53.46,1.08-.19,1-2.6,1.15-3.67,1.26.23-.38.13-.79-.22-.84l0-.07a3.46,3.46,0,0,1,1.08-.4s.48-.12.49-.16a2.42,2.42,0,0,0-.85-.05,4.1,4.1,0,0,1,.91-.3c.46-.13,1-.44.84-.47Zm8.89,1.9c.16.06,1.36.86,1.69,1,.65.21,1.22.35,1.95.58,0,0,1.46.19,1.36.3l.05,0a25,25,0,0,0,3.77.67,2.85,2.85,0,0,1-2.62.46c-.28-.05-.67,0-.76-.25-.48-.21-1.07.16-1.3-.49-.91-.18-2-.18-2.95-.39-.32-.07-.83,0-1.06-.23s0-.5-.15-.67-.49-.26-.66-.3C246.25,12.78,246.57,12.6,246.78,12.38Zm-7.53,1.17v-.09a3.44,3.44,0,0,1,.81-.13.52.52,0,0,0,0-.26l2.56.28a3.92,3.92,0,0,0,1-.12l.05-.06,0-.07a2.17,2.17,0,0,1-.76-.07,8.26,8.26,0,0,1,2.51-.55c.37.42-.27.53-.12.88a.3.3,0,0,0,.28.11c0,.12-.12.23,0,.31-.52.85-2.19.82-3.59.8-.05-.19-.54-.09-.81-.11a10.24,10.24,0,0,1-2.22-.31c.19-.36.69-.2,1.19-.3a3.09,3.09,0,0,0,.79-.25v-.07a1.28,1.28,0,0,0-.47,0C240.28,13.52,239.57,13.55,239.25,13.55Zm-6.53-2.09a.6.6,0,0,1,.37,1.06,3.94,3.94,0,0,1-2.59.89c.12-.14.46-.18.64-.22s0-.15.05-.24a.82.82,0,0,1,.49-.27c.06-.14-.13-.15-.3-.13a3,3,0,0,0,.47-.37l-.07-.15C232.15,11.41,232.12,11.74,232.72,11.46Zm5.53,2.36.08,0c.07.05,0,.11.12.15v.07c-.22.08-.66.17-.65.44a.72.72,0,0,1,.44.32c0,1.08-1.48,1-2.29,1.21a3.74,3.74,0,0,1-1.36.12s0,0-.07,0a.92.92,0,0,0,.36-.29c0-.1-.11-.14-.24-.14.25-.3,1.45-.4,1.55-.67a6.46,6.46,0,0,0-.72-.14c.24-.28,1.47-.2,1.67-.47.06,0,0-.14-.08-.15l.78-.39C238,13.83,238.14,14,238.25,13.82Zm8.09,1.29a3.89,3.89,0,0,1,1.26.12l.22.09c.34-.14,1.22.09,1.08.17l-.05,0v.05a2.37,2.37,0,0,0,.87.15,2.09,2.09,0,0,1-.86.35,5.25,5.25,0,0,1-1.19,0,5.82,5.82,0,0,1-1.9-.25.75.75,0,0,1,.19-.45C246.2,15.24,246.2,15.34,246.34,15.12Zm-12.93-.58.25,0c.12.45-.36.6-.32.81l0,.05.54-.17c.07.59-1.53,1.3-2.17,1.32l0-.05c.14-.15.39-.26.47-.45,0,0,0,0,0-.1a.64.64,0,0,0-.34-.26l0,0,.83-.39.32-.49C233.08,14.64,233.25,14.62,233.41,14.53Zm10.41,1.24h.84c-.13.27-.6.26-.69.41a1.26,1.26,0,0,0,.59.12l.07.09c0,.35-.69.39-1,.51a7.78,7.78,0,0,1-1,.24,1.94,1.94,0,0,1-.57,0c-.73-.11-1.48,0-2.07-.16a6.42,6.42,0,0,0-1.41-.24l.66-.26,0-.12a2.54,2.54,0,0,0,.81-.16l0,0c-.31-.09-.53-.16-.76-.2l1.48,0a3.66,3.66,0,0,1,1-.11A9.06,9.06,0,0,0,243.82,15.77Zm2.09,1.13c.54,0,.8.35,1.35.2a3.26,3.26,0,0,0,.62.09l0,.2-.89.39a8.43,8.43,0,0,1-2-.22v0c0-.09,0-.11,0-.19l-.54.08c.1-.12.2-.07.32-.17l.52-.47C245.4,16.7,245.9,17,245.9,16.9Zm-5.49,1h1.21c.06,0,.06.07.08.08s.52-.1.71-.05a4.45,4.45,0,0,0,.69.17c-.06.34-.08.7-.32.86a2.53,2.53,0,0,1-.92.19c-1.27.22-2.21-.27-3.32-.34l.56-.1a.38.38,0,0,0,.08-.17l-.32-.25c.4-.23,1,.1,1.38.07l0-.1-.19-.18C240.16,18,240.31,18,240.42,17.94Zm-4.7-.12.71-.29.95-.2a4.61,4.61,0,0,1,.5.06c.21.56.3.8-.25,1.13a1.64,1.64,0,0,1-.37.17l.08.19c0,.59-1.37.79-2,.79a11.67,11.67,0,0,0-2.27.64v.1a2.18,2.18,0,0,0,.67-.16l.72-.05.59.07a4.9,4.9,0,0,0,1.65-.05l.05,0c-.2.36-.45.86-.86,1h-.52c-1,.08-1.88-.17-2.81-.13a.39.39,0,0,0,.1-.32l-.07,0a3.78,3.78,0,0,0-1.15.27h-.09c.36-.55,1.2-.32,1.4-1.18a.56.56,0,0,0-.39,0h-.13c0-.12.1-.14.1-.3l-.4,0a4.23,4.23,0,0,1-1.59.68c.17-.23.85-.66.73-1a.3.3,0,0,0-.32-.18,5,5,0,0,1,1.28-.71l-.42.5-.12.12c.09.07.39-.1.5-.19.29-.23.58-.5.87-.71l.57-.35h.05a.81.81,0,0,1,.13.58l.7-.29h-.05a1.58,1.58,0,0,1,1.33-.54A.74.74,0,0,1,235.72,17.81Zm3.79,1.81h.05a.19.19,0,0,1,.08.13c.26.17,1.26-.15,1.63-.05-.06.11-.11.16-.2.17l0,.05s0,.06.05.08.31.07.43.09v.08c-.79.6-2.4.66-3.65.64l.08-.14v-.07l-.3-.1c.25-.18.69-.35.47-.72C238.65,19.64,239.13,19.81,239.5,19.63ZM248,5.88c.35.12.75.61.44,1-.11.16-.34.2-.44.37l.06.14a8.79,8.79,0,0,1-1.14.37,8.93,8.93,0,0,1-1.33.45c-.85.15-1.86,0-2.73.09-.65.06-2.41-.08-2.6-.4s.14-.45.22-.59l0-.1-.7-.14c.36-.35,1.57-.34,2.18-.39a.18.18,0,0,0,0-.23c.66-.33,3.34-.13,3.25-.25a2.62,2.62,0,0,1,.72-.1A9.1,9.1,0,0,0,248,5.88ZM238.77,5h.08c-.21.5.14.71.18,1.2a2.77,2.77,0,0,1-1.36.84c0,.18.15.22.26.34-.56,1-2.42.72-3.5,1.23l0-.05c.24-.28.58-.44.76-.78a1.24,1.24,0,0,0-.24-.29c.47-.14,2.36-1,2.15-1.44C237.55,5.61,238.31,5.54,238.77,5Z"/><path class="cls-3" d="M171.34,31.7a.27.27,0,0,1,0,.09v9.58c0,.41.1.67.3.78a2.73,2.73,0,0,0,1.12.2v.22h-4.11v-.24a2.22,2.22,0,0,0,1.15-.26,1.18,1.18,0,0,0,.27-.93V33.77a1.45,1.45,0,0,0-.09-.58.36.36,0,0,0-.38-.2,1.47,1.47,0,0,0-.5.12c-.2.07-.38.15-.56.24v-.22l2.68-1.49h.09A.15.15,0,0,1,171.34,31.7Z"/><path class="cls-3" d="M179.15,41.58a2.64,2.64,0,0,1-2.23,1.17,3,3,0,0,1-2.34-1.31,5.43,5.43,0,0,1-1.05-3.49,6.54,6.54,0,0,1,2-4.82,5.89,5.89,0,0,1,4.1-1.69l0,.26a6.7,6.7,0,0,0-1.58.5,3.76,3.76,0,0,0-1.17.87,6.89,6.89,0,0,0-1,1.46,6.35,6.35,0,0,0-.64,1.75,5.33,5.33,0,0,1,.78-.45,2.92,2.92,0,0,1,1.17-.26,2.52,2.52,0,0,1,1.95.88A3.61,3.61,0,0,1,180,39,4.33,4.33,0,0,1,179.15,41.58Zm-.78-3.89a1.79,1.79,0,0,0-1.74-1.37,1.52,1.52,0,0,0-1.5.73,3.41,3.41,0,0,0-.22,1.43,6.7,6.7,0,0,0,.51,2.54,1.7,1.7,0,0,0,1.6,1.24,1.32,1.32,0,0,0,1.26-.8,4.3,4.3,0,0,0,.39-1.89A5.33,5.33,0,0,0,178.37,37.69Z"/><path class="cls-3" d="M182.71,41.64a2.12,2.12,0,0,0,1.12.45,1.7,1.7,0,0,0,1.52-.75,2.93,2.93,0,0,0,.5-1.64,2.79,2.79,0,0,0-.4-1.5,2.48,2.48,0,0,0-2.29-1.09H183l-.21,0,0-.21a6.2,6.2,0,0,0,1.84-1.06,2,2,0,0,0,.67-1.58,1.64,1.64,0,0,0-.53-1.32,1.79,1.79,0,0,0-1.2-.45,1.9,1.9,0,0,0-1.42.64,5,5,0,0,0-.72,1.08l-.23-.06a3.71,3.71,0,0,1,1.09-1.93,2.65,2.65,0,0,1,1.84-.72,2.19,2.19,0,0,1,2.33,2.21,2.26,2.26,0,0,1-.5,1.42A4.73,4.73,0,0,1,185,36a3.74,3.74,0,0,1,1.13.76,3,3,0,0,1,.8,2.12,3.76,3.76,0,0,1-1.1,2.67,4.05,4.05,0,0,1-3.1,1.15,2.1,2.1,0,0,1-1.26-.29.82.82,0,0,1-.36-.63.75.75,0,0,1,.12-.4.43.43,0,0,1,.39-.19A2.07,2.07,0,0,1,182.71,41.64Z"/><path class="cls-3" d="M193,41.79a1.91,1.91,0,0,0,.43-1.27,2.06,2.06,0,0,0-.46-1.4,13.36,13.36,0,0,0-1.87-1.63,2.47,2.47,0,0,0-.91,1.11,3.39,3.39,0,0,0-.29,1.32,2.72,2.72,0,0,0,.51,1.74,1.62,1.62,0,0,0,1.31.64A1.57,1.57,0,0,0,193,41.79Zm-.23-6.45a2.45,2.45,0,0,0,.45-1.48,2,2,0,0,0-.43-1.28A1.55,1.55,0,0,0,191.5,32a1.47,1.47,0,0,0-1.11.46,1.56,1.56,0,0,0-.44,1.12,2.19,2.19,0,0,0,.51,1.39,6.19,6.19,0,0,0,1.36,1.2A5,5,0,0,0,192.77,35.34Zm-3.39.46a2.86,2.86,0,0,1-.54-1.69,2.33,2.33,0,0,1,.8-1.78,3,3,0,0,1,2.08-.73,2.52,2.52,0,0,1,1.87.69,2.21,2.21,0,0,1,.69,1.61,2.35,2.35,0,0,1-.71,1.67,6.83,6.83,0,0,1-1.32,1A9.75,9.75,0,0,1,194,38.29a2.91,2.91,0,0,1,.54,1.75,2.6,2.6,0,0,1-.79,1.93,2.88,2.88,0,0,1-2.12.78,3.08,3.08,0,0,1-2-.71,2.38,2.38,0,0,1-.85-1.9,2.86,2.86,0,0,1,.59-1.78,7,7,0,0,1,1.34-1.2A8.55,8.55,0,0,1,189.38,35.8Z"/><path class="cls-3" d="M168.49,28.1a3.94,3.94,0,0,0,.58,1.14,1.76,1.76,0,0,0,1.44.74,1.13,1.13,0,0,0,.8-.32,1.18,1.18,0,0,0,.34-.9,1.32,1.32,0,0,0-.34-.9,6.21,6.21,0,0,0-.94-.73l-.83-.56a2.91,2.91,0,0,1-.6-.52,1.7,1.7,0,0,1-.41-1.11,1.9,1.9,0,0,1,.49-1.34,1.69,1.69,0,0,1,1.3-.53,2.24,2.24,0,0,1,.8.18,3.35,3.35,0,0,0,.54.18.28.28,0,0,0,.25-.09.64.64,0,0,0,.11-.26h.2l.21,2.26h-.24a2.41,2.41,0,0,0-.77-1.43,1.69,1.69,0,0,0-1-.4,1,1,0,0,0-.7.26.88.88,0,0,0-.29.71,1.1,1.1,0,0,0,.23.7,3,3,0,0,0,.71.62l.86.58a4.53,4.53,0,0,1,1.13,1,1.81,1.81,0,0,1,.33,1.08,1.86,1.86,0,0,1-.58,1.4,2,2,0,0,1-1.48.56,2.66,2.66,0,0,1-.95-.19,3.31,3.31,0,0,0-.56-.19.23.23,0,0,0-.23.11.74.74,0,0,0-.08.24h-.21l-.29-2.26Z"/><path class="cls-3" d="M172.77,30a1.56,1.56,0,0,0,.77-.19q.18-.15.18-.77V24.36a1.09,1.09,0,0,0-.18-.75,1.28,1.28,0,0,0-.77-.2v-.2h2.88v.2a1.27,1.27,0,0,0-.77.2,1.09,1.09,0,0,0-.18.75v4.73c0,.41.06.67.18.77a1.55,1.55,0,0,0,.77.19v.19h-2.88Z"/><path class="cls-3" d="M176,30a1.12,1.12,0,0,0,.77-.3,2.11,2.11,0,0,0,.17-1.07V24l-.13-.17a1.09,1.09,0,0,0-.37-.34,1.27,1.27,0,0,0-.45-.08v-.2h1.67l3.75,5.12V24.77a1.84,1.84,0,0,0-.24-1.14,1.14,1.14,0,0,0-.69-.22v-.2h2.29v.2a1.08,1.08,0,0,0-.74.3,2,2,0,0,0-.19,1.07v5.59h-.17l-4.31-5.83v4.14a1.88,1.88,0,0,0,.23,1.14,1.15,1.15,0,0,0,.68.23v.19H176Z"/><path class="cls-3" d="M186.92,23.25a5,5,0,0,0,.62.17.45.45,0,0,0,.26-.08.44.44,0,0,0,.17-.26h.21l.09,2.39H188a3.5,3.5,0,0,0-.51-1.14,1.89,1.89,0,0,0-1.61-.82,2,2,0,0,0-1.67.88,4,4,0,0,0-.65,2.43,3.53,3.53,0,0,0,.68,2.27,2.14,2.14,0,0,0,1.73.85,2.62,2.62,0,0,0,1.4-.39,4.29,4.29,0,0,0,.8-.67l.18.2a3.46,3.46,0,0,1-.81.78,3,3,0,0,1-1.77.57,3.1,3.1,0,0,1-2.5-1.1,3.79,3.79,0,0,1-.85-2.53,3.88,3.88,0,0,1,.9-2.61,3.1,3.1,0,0,1,2.47-1.1A3.69,3.69,0,0,1,186.92,23.25Z"/><path class="cls-3" d="M188.84,30a1.35,1.35,0,0,0,.69-.21,1.13,1.13,0,0,0,.16-.75V24.36a1.17,1.17,0,0,0-.16-.74,1.08,1.08,0,0,0-.7-.22v-.2H194l0,1.53h-.25a1.55,1.55,0,0,0-.37-.91,1.91,1.91,0,0,0-1.1-.21H191c-.14,0-.23,0-.27.08a.56.56,0,0,0,0,.28v2.37h1.5c.41,0,.68-.07.79-.2a1.83,1.83,0,0,0,.28-.82h.23v2.46h-.23A1.85,1.85,0,0,0,193,27a1.08,1.08,0,0,0-.79-.2h-1.5v2.63c0,.21.06.34.18.37a5.56,5.56,0,0,0,1.1.06,3.44,3.44,0,0,0,1.46-.23,2.16,2.16,0,0,0,.85-1.15h.27l-.44,1.8h-5.27Z"/><polygon class="cls-2" points="138.09 143.06 115.88 104.58 160.31 104.58 138.09 143.06"/></g></g></svg>