<svg xmlns="http://www.w3.org/2000/svg" viewBox="0 0 24.47 24.47"><defs><style>.cls-1{fill:#847552;}.cls-2{fill:#fff;}</style></defs><title>Facebook</title><g id="Livello_2" data-name="Livello 2"><g id="Livello_1-2" data-name="Livello 1"><path class="cls-1" d="M23.88.66A2.11,2.11,0,0,0,22.35,0H2.12A2.12,2.12,0,0,0,0,2.12V22.34a2.12,2.12,0,0,0,2.12,2.12H22.35a2.12,2.12,0,0,0,2.12-2.12V2.12A2.11,2.11,0,0,0,23.88.66Z"/><path class="cls-2" d="M12,9.18h2v-2a5.25,5.25,0,0,1,.65-3,3.59,3.59,0,0,1,3.13-1.47,12.72,12.72,0,0,1,3.62.36l-.51,3a6.82,6.82,0,0,0-1.63-.24c-.79,0-1.49.28-1.49,1.07V9.18H21l-.22,2.92h-3V22.25H14V12.1H12Z"/></g></g></svg>